<mxfile host="app.diagrams.net" modified="2021-04-20T01:57:03.827Z" agent="5.0 (Windows NT 10.0; Win64; x64) AppleWebKit/537.36 (KHTML, like Gecko) Chrome/89.0.4389.128 Safari/537.36" etag="sEGyogIJO60XvPHcp8BS" version="14.6.3" type="github">
  <diagram id="01kE69etnI51sQNWm1VQ" name="Page-1">
    <mxGraphModel dx="1209" dy="643" grid="1" gridSize="10" guides="1" tooltips="1" connect="1" arrows="1" fold="1" page="1" pageScale="1" pageWidth="1100" pageHeight="1700" math="0" shadow="0">
      <root>
        <mxCell id="0" />
        <mxCell id="1" parent="0" />
        <mxCell id="VhDSC5Vx_hJPj3awZrOW-1" value="" style="whiteSpace=wrap;html=1;aspect=fixed;" vertex="1" parent="1">
          <mxGeometry x="70" y="80" width="1000" height="1000" as="geometry" />
        </mxCell>
        <mxCell id="VhDSC5Vx_hJPj3awZrOW-2" value="" style="rounded=0;whiteSpace=wrap;html=1;" vertex="1" parent="1">
          <mxGeometry x="70" y="80" width="1000" height="100" as="geometry" />
        </mxCell>
        <mxCell id="VhDSC5Vx_hJPj3awZrOW-3" value="&lt;b&gt;&lt;font&gt;Appetizers&lt;/font&gt;&lt;/b&gt;" style="rounded=0;whiteSpace=wrap;html=1;labelBackgroundColor=#000000;labelBorderColor=none;fillColor=#000000;fontColor=#FFFFFF;" vertex="1" parent="1">
          <mxGeometry x="310" y="340" width="120" height="40" as="geometry" />
        </mxCell>
        <mxCell id="VhDSC5Vx_hJPj3awZrOW-4" value="&lt;b&gt;Salads&lt;/b&gt;" style="rounded=0;whiteSpace=wrap;html=1;" vertex="1" parent="1">
          <mxGeometry x="430" y="340" width="120" height="40" as="geometry" />
        </mxCell>
        <mxCell id="VhDSC5Vx_hJPj3awZrOW-5" value="&lt;b&gt;Dinner&lt;/b&gt;" style="rounded=0;whiteSpace=wrap;html=1;" vertex="1" parent="1">
          <mxGeometry x="550" y="340" width="120" height="40" as="geometry" />
        </mxCell>
        <mxCell id="VhDSC5Vx_hJPj3awZrOW-6" value="&lt;b&gt;Cocktails &amp;amp; Beverages&lt;/b&gt;" style="rounded=0;whiteSpace=wrap;html=1;" vertex="1" parent="1">
          <mxGeometry x="670" y="340" width="120" height="40" as="geometry" />
        </mxCell>
        <mxCell id="VhDSC5Vx_hJPj3awZrOW-7" value="&lt;font style=&quot;font-size: 22px&quot;&gt;&lt;b&gt;&lt;u&gt;Meet the Restaurant&lt;/u&gt;&lt;/b&gt;&lt;/font&gt;" style="shape=tapeData;whiteSpace=wrap;html=1;perimeter=ellipsePerimeter;" vertex="1" parent="1">
          <mxGeometry x="90" y="85" width="240" height="90" as="geometry" />
        </mxCell>
        <mxCell id="VhDSC5Vx_hJPj3awZrOW-8" value="HOME" style="text;html=1;strokeColor=none;fillColor=none;align=center;verticalAlign=middle;whiteSpace=wrap;rounded=0;fontStyle=1" vertex="1" parent="1">
          <mxGeometry x="700" y="120" width="40" height="20" as="geometry" />
        </mxCell>
        <mxCell id="VhDSC5Vx_hJPj3awZrOW-9" value="MENU" style="text;html=1;strokeColor=none;fillColor=none;align=center;verticalAlign=middle;whiteSpace=wrap;rounded=0;fontStyle=1" vertex="1" parent="1">
          <mxGeometry x="790" y="120" width="40" height="20" as="geometry" />
        </mxCell>
        <mxCell id="VhDSC5Vx_hJPj3awZrOW-10" value="RESERVATIONS" style="text;html=1;strokeColor=none;fillColor=none;align=center;verticalAlign=middle;whiteSpace=wrap;rounded=0;fontStyle=1" vertex="1" parent="1">
          <mxGeometry x="890" y="120" width="40" height="20" as="geometry" />
        </mxCell>
        <mxCell id="VhDSC5Vx_hJPj3awZrOW-11" value="" style="verticalLabelPosition=bottom;shadow=0;dashed=0;align=center;html=1;verticalAlign=top;strokeWidth=1;shape=mxgraph.mockup.graphics.simpleIcon;strokeColor=#999999;" vertex="1" parent="1">
          <mxGeometry x="170" y="420" width="100" height="110" as="geometry" />
        </mxCell>
        <mxCell id="VhDSC5Vx_hJPj3awZrOW-12" value="" style="verticalLabelPosition=bottom;shadow=0;dashed=0;align=center;html=1;verticalAlign=top;strokeWidth=1;shape=mxgraph.mockup.graphics.simpleIcon;strokeColor=#999999;" vertex="1" parent="1">
          <mxGeometry x="170" y="740" width="100" height="110" as="geometry" />
        </mxCell>
        <mxCell id="VhDSC5Vx_hJPj3awZrOW-13" value="" style="verticalLabelPosition=bottom;shadow=0;dashed=0;align=center;html=1;verticalAlign=top;strokeWidth=1;shape=mxgraph.mockup.graphics.simpleIcon;strokeColor=#999999;" vertex="1" parent="1">
          <mxGeometry x="170" y="570" width="100" height="110" as="geometry" />
        </mxCell>
        <mxCell id="VhDSC5Vx_hJPj3awZrOW-14" value="" style="verticalLabelPosition=bottom;shadow=0;dashed=0;align=center;html=1;verticalAlign=top;strokeWidth=1;shape=mxgraph.mockup.graphics.simpleIcon;strokeColor=#999999;" vertex="1" parent="1">
          <mxGeometry x="560" y="425" width="90" height="105" as="geometry" />
        </mxCell>
        <mxCell id="VhDSC5Vx_hJPj3awZrOW-15" value="" style="verticalLabelPosition=bottom;shadow=0;dashed=0;align=center;html=1;verticalAlign=top;strokeWidth=1;shape=mxgraph.mockup.graphics.simpleIcon;strokeColor=#999999;" vertex="1" parent="1">
          <mxGeometry x="560" y="575" width="92.5" height="100" as="geometry" />
        </mxCell>
        <mxCell id="VhDSC5Vx_hJPj3awZrOW-16" value="" style="verticalLabelPosition=bottom;shadow=0;dashed=0;align=center;html=1;verticalAlign=top;strokeWidth=1;shape=mxgraph.mockup.graphics.simpleIcon;strokeColor=#999999;" vertex="1" parent="1">
          <mxGeometry x="560" y="740" width="90" height="110" as="geometry" />
        </mxCell>
        <mxCell id="VhDSC5Vx_hJPj3awZrOW-17" value="&lt;h1&gt;Appetizer&amp;nbsp; &amp;nbsp; &amp;nbsp; &amp;nbsp; &amp;nbsp;&lt;font style=&quot;font-size: 20px&quot;&gt;$12.00&lt;/font&gt;&lt;/h1&gt;&lt;h1 style=&quot;font-size: 13px&quot;&gt;&lt;font style=&quot;font-size: 13px&quot;&gt;Spinach-stuffed&lt;span style=&quot;font-weight: normal&quot;&gt; mushrooms creamy, garlicky, spinach stuffed mushrooms topped with bubbling&amp;nbsp;&lt;/span&gt;&lt;/font&gt;&lt;span style=&quot;font-weight: normal&quot;&gt;parmesan cheese.&amp;nbsp;&lt;/span&gt;&lt;/h1&gt;" style="text;html=1;strokeColor=none;fillColor=none;spacing=5;spacingTop=-20;whiteSpace=wrap;overflow=hidden;rounded=0;" vertex="1" parent="1">
          <mxGeometry x="660" y="580" width="280" height="110" as="geometry" />
        </mxCell>
        <mxCell id="VhDSC5Vx_hJPj3awZrOW-18" value="&lt;h1&gt;&lt;span style=&quot;font-size: 23px&quot;&gt;Appetizer&amp;nbsp; &amp;nbsp; &amp;nbsp; &amp;nbsp; &amp;nbsp; &lt;/span&gt;&lt;font style=&quot;font-size: 20px&quot;&gt;$12.00&lt;/font&gt;&lt;span style=&quot;font-size: 23px&quot;&gt;&amp;nbsp; &amp;nbsp;&amp;nbsp;&lt;/span&gt;&lt;/h1&gt;&lt;span&gt;&lt;b&gt;Mini Hasselback &lt;/b&gt;potatoes with dill sauce crispy on the outside, soft and pillowy on the inside seasoned potatoes topped with a creamy dill sauce.&amp;nbsp;&amp;nbsp;&lt;/span&gt;" style="text;html=1;strokeColor=none;fillColor=none;spacing=5;spacingTop=-20;whiteSpace=wrap;overflow=hidden;rounded=0;" vertex="1" parent="1">
          <mxGeometry x="660" y="425" width="270" height="110" as="geometry" />
        </mxCell>
        <mxCell id="VhDSC5Vx_hJPj3awZrOW-19" value="&lt;h1&gt;Appetizer&amp;nbsp; &amp;nbsp; &amp;nbsp; &amp;nbsp; &amp;nbsp; &amp;nbsp;&amp;nbsp;&lt;font style=&quot;font-size: 19px&quot;&gt;$14.00&lt;/font&gt;&lt;/h1&gt;&lt;h1 style=&quot;line-height: 50%&quot;&gt;&lt;font style=&quot;font-size: 12px&quot;&gt;Korean Beef &lt;/font&gt;&lt;font style=&quot;font-size: 12px ; font-weight: normal&quot;&gt;lettuce wraps bulgogi beef wrapped in little lettuce packages with homemade pickled onions and radishes, topped with miso mayo.&amp;nbsp;&amp;nbsp;&lt;/font&gt;&lt;/h1&gt;" style="text;html=1;strokeColor=none;fillColor=none;spacing=5;spacingTop=-20;whiteSpace=wrap;overflow=hidden;rounded=0;" vertex="1" parent="1">
          <mxGeometry x="280" y="570" width="270" height="130" as="geometry" />
        </mxCell>
        <mxCell id="VhDSC5Vx_hJPj3awZrOW-20" value="&lt;h1&gt;&lt;span style=&quot;font-size: 23px&quot;&gt;Appetizer&amp;nbsp; &amp;nbsp; &amp;nbsp; &amp;nbsp; &amp;nbsp; &amp;nbsp; &amp;nbsp;&lt;/span&gt;&lt;font style=&quot;font-size: 18px&quot;&gt;$18.00&lt;/font&gt;&lt;span style=&quot;font-size: 23px&quot;&gt;&amp;nbsp;&amp;nbsp;&lt;/span&gt;&lt;/h1&gt;&lt;h1 style=&quot;line-height: 60%&quot;&gt;&lt;font style=&quot;font-size: 12px&quot;&gt;Cranberry&lt;/font&gt;&lt;font style=&quot;font-size: 12px&quot;&gt;&amp;nbsp;B&lt;/font&gt;&lt;span style=&quot;font-size: 12px&quot;&gt;rie&lt;/span&gt;&lt;span style=&quot;font-size: 12px ; font-weight: normal&quot;&gt; pull-apart bread gooey brie topped with sweet cranberries on a crusty loaf&amp;nbsp;&lt;/span&gt;&lt;font style=&quot;font-size: 12px ; font-weight: normal&quot;&gt;of sourdough.&lt;/font&gt;&lt;span style=&quot;font-size: 23px&quot;&gt;&amp;nbsp;&lt;/span&gt;&lt;/h1&gt;" style="text;html=1;strokeColor=none;fillColor=none;spacing=5;spacingTop=-20;whiteSpace=wrap;overflow=hidden;rounded=0;" vertex="1" parent="1">
          <mxGeometry x="275" y="420" width="265" height="110" as="geometry" />
        </mxCell>
        <mxCell id="VhDSC5Vx_hJPj3awZrOW-21" value="&lt;h1&gt;Appetizer&amp;nbsp; &amp;nbsp; &amp;nbsp; &amp;nbsp; &amp;nbsp; &amp;nbsp;&lt;font style=&quot;font-size: 20px&quot;&gt;$12.00&lt;/font&gt;&lt;/h1&gt;&lt;p class=&quot;MsoNormal&quot; style=&quot;margin-bottom: 0in ; line-height: 150%&quot;&gt;&lt;span style=&quot;line-height: 32%&quot;&gt;&lt;b&gt;Spinach-stuffed&lt;/b&gt;&amp;nbsp;&lt;/span&gt;&lt;span style=&quot;line-height: 32%&quot;&gt;mushrooms creamy, garlicky, spinach stuffed mushrooms topped with bubbling&amp;nbsp;&lt;/span&gt;&lt;span style=&quot;line-height: 32%&quot;&gt;parmesan cheese.&lt;/span&gt;&lt;font face=&quot;Menlo-Regular&quot; style=&quot;font-size: 12pt&quot;&gt;&lt;/font&gt;&lt;/p&gt;" style="text;html=1;strokeColor=none;fillColor=none;spacing=5;spacingTop=-20;whiteSpace=wrap;overflow=hidden;rounded=0;" vertex="1" parent="1">
          <mxGeometry x="280" y="740" width="260" height="110" as="geometry" />
        </mxCell>
        <mxCell id="VhDSC5Vx_hJPj3awZrOW-22" value="&lt;h1&gt;Appetizer&amp;nbsp; &amp;nbsp; &amp;nbsp; &amp;nbsp; &amp;nbsp;&lt;font style=&quot;font-size: 20px&quot;&gt;$18.00&lt;/font&gt;&lt;/h1&gt;&lt;p class=&quot;MsoNormal&quot; style=&quot;margin-bottom: 0in ; line-height: 130%&quot;&gt;&lt;span style=&quot;line-height: 102%&quot;&gt;&lt;b&gt;Gruyere&lt;/b&gt;,&amp;nbsp;&lt;/span&gt;&lt;span style=&quot;line-height: 102%&quot;&gt;mushroom, &amp;amp; caramelized onion bites caramelized onion bites with sautéed&amp;nbsp;&lt;/span&gt;&lt;span style=&quot;line-height: 102%&quot;&gt;crimini mushrooms, balsamic caramelized onions, and applewood smoked gruyere&amp;nbsp;&lt;/span&gt;&lt;span style=&quot;line-height: 102%&quot;&gt;cheese.&amp;nbsp;&lt;/span&gt;&lt;font face=&quot;Menlo-Regular&quot; style=&quot;font-size: 12pt&quot;&gt;&lt;/font&gt;&lt;/p&gt;" style="text;html=1;strokeColor=none;fillColor=none;spacing=5;spacingTop=-20;whiteSpace=wrap;overflow=hidden;rounded=0;" vertex="1" parent="1">
          <mxGeometry x="660" y="740" width="280" height="120" as="geometry" />
        </mxCell>
        <mxCell id="VhDSC5Vx_hJPj3awZrOW-25" value="&lt;h1&gt;Meet&lt;/h1&gt;&lt;p&gt;&lt;font style=&quot;font-size: 24px&quot;&gt;THE MENU&lt;/font&gt;&lt;/p&gt;" style="text;html=1;strokeColor=none;fillColor=none;spacing=5;spacingTop=-20;whiteSpace=wrap;overflow=hidden;rounded=0;align=center;" vertex="1" parent="1">
          <mxGeometry x="455" y="200" width="190" height="120" as="geometry" />
        </mxCell>
        <mxCell id="VhDSC5Vx_hJPj3awZrOW-26" value="&lt;h1&gt;Appetizer&amp;nbsp; &amp;nbsp; &amp;nbsp; &amp;nbsp; &amp;nbsp; &amp;nbsp;&lt;font style=&quot;font-size: 20px&quot;&gt;$18.00&lt;/font&gt;&lt;/h1&gt;&lt;p class=&quot;MsoNormal&quot; style=&quot;margin-bottom: 0in ; line-height: 132%&quot;&gt;&lt;b&gt;Wild&amp;nbsp;&lt;/b&gt;mushroom risotto creamy risotto topped with crunchy chestnuts, baby spinach and&lt;br&gt;parmesan.&lt;/p&gt;" style="text;html=1;strokeColor=none;fillColor=none;spacing=5;spacingTop=-20;whiteSpace=wrap;overflow=hidden;rounded=0;labelBackgroundColor=#FFFFFF;" vertex="1" parent="1">
          <mxGeometry x="282.5" y="920" width="265" height="120" as="geometry" />
        </mxCell>
        <mxCell id="VhDSC5Vx_hJPj3awZrOW-27" value="" style="verticalLabelPosition=bottom;shadow=0;dashed=0;align=center;html=1;verticalAlign=top;strokeWidth=1;shape=mxgraph.mockup.graphics.simpleIcon;labelBackgroundColor=#FFFFFF;" vertex="1" parent="1">
          <mxGeometry x="170" y="910" width="100" height="110" as="geometry" />
        </mxCell>
        <mxCell id="VhDSC5Vx_hJPj3awZrOW-28" value="" style="whiteSpace=wrap;html=1;aspect=fixed;labelBackgroundColor=#FFFFFF;" vertex="1" parent="1">
          <mxGeometry x="70" y="1180" width="1000" height="1000" as="geometry" />
        </mxCell>
        <mxCell id="VhDSC5Vx_hJPj3awZrOW-29" value="" style="rounded=0;whiteSpace=wrap;html=1;labelBackgroundColor=#FFFFFF;" vertex="1" parent="1">
          <mxGeometry x="70" y="1180" width="1000" height="110" as="geometry" />
        </mxCell>
        <mxCell id="VhDSC5Vx_hJPj3awZrOW-30" value="&lt;b&gt;Appetizers&lt;/b&gt;" style="rounded=0;whiteSpace=wrap;html=1;labelBackgroundColor=#FFFFFF;" vertex="1" parent="1">
          <mxGeometry x="320" y="1440" width="120" height="50" as="geometry" />
        </mxCell>
        <mxCell id="VhDSC5Vx_hJPj3awZrOW-31" value="&lt;b&gt;&lt;font&gt;Salads &amp;amp; Desserts&lt;/font&gt;&lt;/b&gt;" style="rounded=0;whiteSpace=wrap;html=1;labelBackgroundColor=#000000;fillColor=#000000;fontColor=#FFFFFF;" vertex="1" parent="1">
          <mxGeometry x="440" y="1440" width="120" height="50" as="geometry" />
        </mxCell>
        <mxCell id="VhDSC5Vx_hJPj3awZrOW-32" value="&lt;b&gt;Dinner&lt;/b&gt;" style="rounded=0;whiteSpace=wrap;html=1;labelBackgroundColor=#FFFFFF;" vertex="1" parent="1">
          <mxGeometry x="560" y="1440" width="120" height="50" as="geometry" />
        </mxCell>
        <mxCell id="VhDSC5Vx_hJPj3awZrOW-33" value="&lt;b&gt;Cocktails &amp;amp; Beverages&lt;/b&gt;" style="rounded=0;whiteSpace=wrap;html=1;labelBackgroundColor=#FFFFFF;" vertex="1" parent="1">
          <mxGeometry x="680" y="1440" width="120" height="50" as="geometry" />
        </mxCell>
        <mxCell id="VhDSC5Vx_hJPj3awZrOW-34" value="" style="verticalLabelPosition=bottom;shadow=0;dashed=0;align=center;html=1;verticalAlign=top;strokeWidth=1;shape=mxgraph.mockup.graphics.simpleIcon;labelBackgroundColor=#FFFFFF;" vertex="1" parent="1">
          <mxGeometry x="170" y="1550" width="100" height="110" as="geometry" />
        </mxCell>
        <mxCell id="VhDSC5Vx_hJPj3awZrOW-35" value="" style="verticalLabelPosition=bottom;shadow=0;dashed=0;align=center;html=1;verticalAlign=top;strokeWidth=1;shape=mxgraph.mockup.graphics.simpleIcon;labelBackgroundColor=#FFFFFF;" vertex="1" parent="1">
          <mxGeometry x="560" y="1550" width="100" height="110" as="geometry" />
        </mxCell>
        <mxCell id="VhDSC5Vx_hJPj3awZrOW-37" value="" style="verticalLabelPosition=bottom;shadow=0;dashed=0;align=center;html=1;verticalAlign=top;strokeWidth=1;shape=mxgraph.mockup.graphics.simpleIcon;labelBackgroundColor=#FFFFFF;" vertex="1" parent="1">
          <mxGeometry x="170" y="1940" width="100" height="110" as="geometry" />
        </mxCell>
        <mxCell id="VhDSC5Vx_hJPj3awZrOW-38" value="&lt;h1&gt;Salads&amp;nbsp; &amp;nbsp; &amp;nbsp; &amp;nbsp; &amp;nbsp; &amp;nbsp; &amp;nbsp; &amp;nbsp;&amp;nbsp;&lt;font style=&quot;font-size: 20px&quot;&gt;$14.00&lt;/font&gt;&lt;/h1&gt;&lt;p class=&quot;MsoNormal&quot; style=&quot;margin-bottom: 0in ; line-height: 142%&quot;&gt;&lt;b&gt;Persimmon&lt;/b&gt;, pomegranate, and kale salad massaged seasoned kale salad served with a&lt;br&gt;delicious tangy citrus dressing.&lt;/p&gt;" style="text;html=1;strokeColor=none;fillColor=none;spacing=5;spacingTop=-20;whiteSpace=wrap;overflow=hidden;rounded=0;labelBackgroundColor=#FFFFFF;fontColor=#000000;" vertex="1" parent="1">
          <mxGeometry x="282.5" y="1550" width="265" height="120" as="geometry" />
        </mxCell>
        <mxCell id="VhDSC5Vx_hJPj3awZrOW-39" value="&lt;h1&gt;Salads&amp;nbsp; &amp;nbsp; &amp;nbsp; &amp;nbsp; &amp;nbsp; &amp;nbsp; &amp;nbsp; &amp;nbsp; &amp;nbsp; &amp;nbsp; &amp;nbsp;&lt;font style=&quot;font-size: 20px&quot;&gt;$22.00&lt;/font&gt;&lt;/h1&gt;&lt;p class=&quot;MsoNormal&quot; style=&quot;margin-bottom: 0in ; line-height: 142%&quot;&gt;&lt;b&gt;Peach&lt;/b&gt;, sweet corn and halloumi salad fresh sweet corn and juicy peaches served with salty halloumi cheese on arugula.&lt;/p&gt;" style="text;html=1;strokeColor=none;fillColor=none;spacing=5;spacingTop=-20;whiteSpace=wrap;overflow=hidden;rounded=0;labelBackgroundColor=#FFFFFF;fontColor=#000000;" vertex="1" parent="1">
          <mxGeometry x="680" y="1550" width="317.5" height="120" as="geometry" />
        </mxCell>
        <mxCell id="VhDSC5Vx_hJPj3awZrOW-40" value="&lt;h1&gt;Dessert&amp;nbsp; &amp;nbsp; &amp;nbsp; &amp;nbsp; &amp;nbsp; &amp;nbsp; &amp;nbsp; &amp;nbsp;&amp;nbsp;&lt;font style=&quot;font-size: 20px&quot;&gt;$12.00&lt;/font&gt;&lt;/h1&gt;&lt;p class=&quot;MsoNormal&quot; style=&quot;margin-bottom: 0in ; line-height: 142%&quot;&gt;&lt;b&gt;Salted&amp;nbsp;&lt;/b&gt;caramel white chocolate brownies decadent gooey white chocolate brownies layered with in house made caramel.&amp;nbsp;&lt;font face=&quot;Menlo-Regular&quot;&gt;&lt;span style=&quot;font-size: 12pt&quot;&gt;&lt;/span&gt;&lt;/font&gt;&lt;/p&gt;" style="text;html=1;strokeColor=none;fillColor=none;spacing=5;spacingTop=-20;whiteSpace=wrap;overflow=hidden;rounded=0;labelBackgroundColor=#FFFFFF;fontColor=#000000;" vertex="1" parent="1">
          <mxGeometry x="280" y="1940" width="277.5" height="120" as="geometry" />
        </mxCell>
        <mxCell id="VhDSC5Vx_hJPj3awZrOW-41" value="&lt;b&gt;HOME&lt;/b&gt;" style="text;html=1;strokeColor=none;fillColor=none;align=center;verticalAlign=middle;whiteSpace=wrap;rounded=0;labelBackgroundColor=#FFFFFF;fontColor=#000000;" vertex="1" parent="1">
          <mxGeometry x="680" y="1220" width="40" height="20" as="geometry" />
        </mxCell>
        <mxCell id="VhDSC5Vx_hJPj3awZrOW-42" value="&lt;b&gt;MENU&lt;/b&gt;" style="text;html=1;strokeColor=none;fillColor=none;align=center;verticalAlign=middle;whiteSpace=wrap;rounded=0;labelBackgroundColor=#FFFFFF;fontColor=#000000;" vertex="1" parent="1">
          <mxGeometry x="780" y="1220" width="40" height="20" as="geometry" />
        </mxCell>
        <mxCell id="VhDSC5Vx_hJPj3awZrOW-43" value="&lt;b&gt;RESERVATIONS&lt;/b&gt;" style="text;html=1;strokeColor=none;fillColor=none;align=center;verticalAlign=middle;whiteSpace=wrap;rounded=0;labelBackgroundColor=#FFFFFF;fontColor=#000000;" vertex="1" parent="1">
          <mxGeometry x="890" y="1220" width="40" height="20" as="geometry" />
        </mxCell>
        <mxCell id="VhDSC5Vx_hJPj3awZrOW-45" value="&lt;font style=&quot;font-size: 22px&quot;&gt;&lt;b&gt;&lt;u&gt;Meet The Restaurant&lt;/u&gt;&lt;/b&gt;&lt;/font&gt;" style="shape=tapeData;whiteSpace=wrap;html=1;perimeter=ellipsePerimeter;labelBackgroundColor=#FFFFFF;" vertex="1" parent="1">
          <mxGeometry x="90" y="1190" width="240" height="90" as="geometry" />
        </mxCell>
        <mxCell id="VhDSC5Vx_hJPj3awZrOW-46" value="&lt;h1&gt;Meet&lt;/h1&gt;&lt;p style=&quot;font-size: 24px&quot;&gt;&lt;font style=&quot;font-size: 24px&quot;&gt;THE &lt;/font&gt;MENU&lt;/p&gt;" style="text;html=1;spacing=5;spacingTop=-20;whiteSpace=wrap;overflow=hidden;rounded=0;labelBackgroundColor=#FFFFFF;align=center;" vertex="1" parent="1">
          <mxGeometry x="470" y="1310" width="190" height="120" as="geometry" />
        </mxCell>
        <mxCell id="VhDSC5Vx_hJPj3awZrOW-47" value="" style="verticalLabelPosition=bottom;shadow=0;dashed=0;align=center;html=1;verticalAlign=top;strokeWidth=1;shape=mxgraph.mockup.graphics.simpleIcon;labelBackgroundColor=#FFFFFF;" vertex="1" parent="1">
          <mxGeometry x="562.5" y="1940" width="97.5" height="110" as="geometry" />
        </mxCell>
        <mxCell id="VhDSC5Vx_hJPj3awZrOW-48" value="&lt;h1&gt;Dessert&amp;nbsp; &amp;nbsp; &amp;nbsp; &amp;nbsp; &amp;nbsp; &amp;nbsp; &amp;nbsp; &amp;nbsp; &amp;nbsp; &amp;nbsp; &lt;font style=&quot;font-size: 20px&quot;&gt;$8.00&lt;/font&gt;&lt;/h1&gt;&lt;p class=&quot;MsoNormal&quot; style=&quot;margin-bottom: 0in ; line-height: 142%&quot;&gt;&lt;b&gt;Cinnamon&lt;/b&gt; Sugar Pretzel Bites warm fried dough covered in cinnamon sugar served with chocolate sauce for dipping.&lt;/p&gt;" style="text;html=1;strokeColor=none;fillColor=none;spacing=5;spacingTop=-20;whiteSpace=wrap;overflow=hidden;rounded=0;labelBackgroundColor=#FFFFFF;" vertex="1" parent="1">
          <mxGeometry x="680" y="1940" width="320" height="120" as="geometry" />
        </mxCell>
        <mxCell id="VhDSC5Vx_hJPj3awZrOW-49" value="&lt;b&gt;Appetizers&lt;/b&gt;" style="rounded=0;whiteSpace=wrap;html=1;labelBackgroundColor=#FFFFFF;" vertex="1" parent="1">
          <mxGeometry x="320" y="1760" width="120" height="60" as="geometry" />
        </mxCell>
        <mxCell id="VhDSC5Vx_hJPj3awZrOW-50" value="&lt;font&gt;Salads &amp;amp; Desserts&lt;/font&gt;" style="rounded=0;whiteSpace=wrap;html=1;labelBackgroundColor=#000000;fillColor=#000000;fontColor=#FFFFFF;fontStyle=1" vertex="1" parent="1">
          <mxGeometry x="440" y="1760" width="120" height="60" as="geometry" />
        </mxCell>
        <mxCell id="VhDSC5Vx_hJPj3awZrOW-51" value="&lt;b&gt;Dinner&lt;/b&gt;" style="rounded=0;whiteSpace=wrap;html=1;labelBackgroundColor=#FFFFFF;" vertex="1" parent="1">
          <mxGeometry x="560" y="1760" width="120" height="60" as="geometry" />
        </mxCell>
        <mxCell id="VhDSC5Vx_hJPj3awZrOW-52" value="&lt;b&gt;Cocktails &amp;amp; Beverages&lt;/b&gt;" style="rounded=0;whiteSpace=wrap;html=1;labelBackgroundColor=#FFFFFF;" vertex="1" parent="1">
          <mxGeometry x="680" y="1760" width="120" height="60" as="geometry" />
        </mxCell>
        <mxCell id="VhDSC5Vx_hJPj3awZrOW-53" value="" style="whiteSpace=wrap;html=1;aspect=fixed;labelBackgroundColor=#000000;" vertex="1" parent="1">
          <mxGeometry x="70" y="2270" width="1000" height="1000" as="geometry" />
        </mxCell>
        <mxCell id="VhDSC5Vx_hJPj3awZrOW-54" value="" style="rounded=0;whiteSpace=wrap;html=1;labelBackgroundColor=#000000;" vertex="1" parent="1">
          <mxGeometry x="70" y="2270" width="1000" height="110" as="geometry" />
        </mxCell>
        <mxCell id="VhDSC5Vx_hJPj3awZrOW-56" value="HOME" style="text;html=1;align=center;verticalAlign=middle;whiteSpace=wrap;rounded=0;labelBackgroundColor=#FFFFFF;fontStyle=1" vertex="1" parent="1">
          <mxGeometry x="690" y="2315" width="40" height="20" as="geometry" />
        </mxCell>
        <mxCell id="VhDSC5Vx_hJPj3awZrOW-57" value="MENU" style="text;html=1;strokeColor=none;fillColor=none;align=center;verticalAlign=middle;whiteSpace=wrap;rounded=0;labelBackgroundColor=#FFFFFF;fontStyle=1" vertex="1" parent="1">
          <mxGeometry x="790" y="2315" width="40" height="20" as="geometry" />
        </mxCell>
        <mxCell id="VhDSC5Vx_hJPj3awZrOW-58" value="RESERVATIONS" style="text;html=1;strokeColor=none;fillColor=none;align=center;verticalAlign=middle;whiteSpace=wrap;rounded=0;labelBackgroundColor=#FFFFFF;fontStyle=1" vertex="1" parent="1">
          <mxGeometry x="900" y="2315" width="40" height="20" as="geometry" />
        </mxCell>
        <mxCell id="VhDSC5Vx_hJPj3awZrOW-59" value="&lt;font style=&quot;font-size: 22px&quot;&gt;&lt;u&gt;&lt;b&gt;Meet The Restaurant&lt;/b&gt;&lt;/u&gt;&lt;/font&gt;" style="shape=tapeData;whiteSpace=wrap;html=1;perimeter=ellipsePerimeter;labelBackgroundColor=#FFFFFF;" vertex="1" parent="1">
          <mxGeometry x="90" y="2280" width="240" height="90" as="geometry" />
        </mxCell>
        <mxCell id="VhDSC5Vx_hJPj3awZrOW-60" value="&lt;b&gt;Appetizer&lt;/b&gt;" style="rounded=0;whiteSpace=wrap;html=1;labelBackgroundColor=#FFFFFF;" vertex="1" parent="1">
          <mxGeometry x="347.5" y="2510" width="120" height="50" as="geometry" />
        </mxCell>
        <mxCell id="VhDSC5Vx_hJPj3awZrOW-61" value="&lt;b&gt;Salads &amp;amp; Desserts&lt;/b&gt;" style="rounded=0;whiteSpace=wrap;html=1;labelBackgroundColor=#FFFFFF;" vertex="1" parent="1">
          <mxGeometry x="467.5" y="2510" width="120" height="50" as="geometry" />
        </mxCell>
        <mxCell id="VhDSC5Vx_hJPj3awZrOW-62" value="&lt;b&gt;&lt;font color=&quot;#ffffff&quot;&gt;Dinner&lt;/font&gt;&lt;/b&gt;" style="rounded=0;whiteSpace=wrap;html=1;labelBackgroundColor=#000000;fillColor=#000000;" vertex="1" parent="1">
          <mxGeometry x="587.5" y="2510" width="120" height="50" as="geometry" />
        </mxCell>
        <mxCell id="VhDSC5Vx_hJPj3awZrOW-63" value="&lt;b&gt;Cocktails &amp;amp; Beverages&lt;/b&gt;" style="rounded=0;whiteSpace=wrap;html=1;labelBackgroundColor=#FFFFFF;" vertex="1" parent="1">
          <mxGeometry x="705" y="2510" width="120" height="50" as="geometry" />
        </mxCell>
        <mxCell id="VhDSC5Vx_hJPj3awZrOW-64" value="" style="verticalLabelPosition=bottom;shadow=0;dashed=0;align=center;html=1;verticalAlign=top;strokeWidth=1;shape=mxgraph.mockup.graphics.simpleIcon;labelBackgroundColor=#FFFFFF;" vertex="1" parent="1">
          <mxGeometry x="160" y="2590" width="100" height="110" as="geometry" />
        </mxCell>
        <mxCell id="VhDSC5Vx_hJPj3awZrOW-65" value="" style="verticalLabelPosition=bottom;shadow=0;dashed=0;align=center;html=1;verticalAlign=top;strokeWidth=1;shape=mxgraph.mockup.graphics.simpleIcon;labelBackgroundColor=#FFFFFF;" vertex="1" parent="1">
          <mxGeometry x="590" y="2595" width="100" height="110" as="geometry" />
        </mxCell>
        <mxCell id="VhDSC5Vx_hJPj3awZrOW-66" value="" style="verticalLabelPosition=bottom;shadow=0;dashed=0;align=center;html=1;verticalAlign=top;strokeWidth=1;shape=mxgraph.mockup.graphics.simpleIcon;labelBackgroundColor=#FFFFFF;" vertex="1" parent="1">
          <mxGeometry x="160" y="2760" width="100" height="110" as="geometry" />
        </mxCell>
        <mxCell id="VhDSC5Vx_hJPj3awZrOW-67" value="" style="verticalLabelPosition=bottom;shadow=0;dashed=0;align=center;html=1;verticalAlign=top;strokeWidth=1;shape=mxgraph.mockup.graphics.simpleIcon;labelBackgroundColor=#FFFFFF;" vertex="1" parent="1">
          <mxGeometry x="587.5" y="2765" width="100" height="110" as="geometry" />
        </mxCell>
        <mxCell id="VhDSC5Vx_hJPj3awZrOW-68" value="" style="verticalLabelPosition=bottom;shadow=0;dashed=0;align=center;html=1;verticalAlign=top;strokeWidth=1;shape=mxgraph.mockup.graphics.simpleIcon;labelBackgroundColor=#FFFFFF;" vertex="1" parent="1">
          <mxGeometry x="160" y="2930" width="100" height="110" as="geometry" />
        </mxCell>
        <mxCell id="VhDSC5Vx_hJPj3awZrOW-69" value="" style="verticalLabelPosition=bottom;shadow=0;dashed=0;align=center;html=1;verticalAlign=top;strokeWidth=1;shape=mxgraph.mockup.graphics.simpleIcon;labelBackgroundColor=#FFFFFF;" vertex="1" parent="1">
          <mxGeometry x="590" y="2930" width="100" height="110" as="geometry" />
        </mxCell>
        <mxCell id="VhDSC5Vx_hJPj3awZrOW-70" value="&lt;h1&gt;Meet&lt;/h1&gt;&lt;p&gt;&lt;font style=&quot;font-size: 22px&quot;&gt;THE MENU&lt;/font&gt;&lt;/p&gt;" style="text;html=1;strokeColor=none;fillColor=none;spacing=5;spacingTop=-20;whiteSpace=wrap;overflow=hidden;rounded=0;labelBackgroundColor=#FFFFFF;fontColor=#000000;align=center;" vertex="1" parent="1">
          <mxGeometry x="490" y="2400" width="190" height="120" as="geometry" />
        </mxCell>
        <mxCell id="VhDSC5Vx_hJPj3awZrOW-71" value="&lt;p style=&quot;line-height: 90%&quot;&gt;&lt;/p&gt;&lt;h1&gt;&amp;nbsp;Dinner&amp;nbsp; &amp;nbsp; &amp;nbsp; &amp;nbsp; &amp;nbsp; &amp;nbsp; &amp;nbsp; &amp;nbsp; &amp;nbsp;&amp;nbsp;&lt;font style=&quot;font-size: 20px&quot;&gt;$34.00&lt;/font&gt;&lt;/h1&gt;&lt;h5 style=&quot;margin-bottom: 0in ; line-height: 20.0pt&quot;&gt;&lt;span style=&quot;line-height: 127%&quot;&gt;&lt;span style=&quot;line-height: 105%&quot;&gt;&lt;font style=&quot;font-size: 12px ; line-height: 107%&quot;&gt;Pan-seared &lt;span style=&quot;font-weight: normal&quot;&gt;filet mignon cooked with beef broth, red wine, butter, garlic, thyme, and mushrooms served with creamy mashed potatoes and asparagus.&lt;/span&gt;&lt;/font&gt;&lt;/span&gt;&lt;/span&gt;&lt;/h5&gt;&lt;p&gt;&lt;/p&gt;" style="text;html=1;strokeColor=none;fillColor=none;spacing=5;spacingTop=-20;whiteSpace=wrap;overflow=hidden;rounded=0;labelBackgroundColor=#FFFFFF;fontColor=#000000;" vertex="1" parent="1">
          <mxGeometry x="272.5" y="2590" width="310" height="140" as="geometry" />
        </mxCell>
        <mxCell id="VhDSC5Vx_hJPj3awZrOW-72" value="&lt;h1&gt;Dinner&amp;nbsp; &amp;nbsp; &amp;nbsp; &amp;nbsp; &amp;nbsp; &amp;nbsp; &amp;nbsp; &amp;nbsp; &amp;nbsp;&amp;nbsp;&lt;font style=&quot;font-size: 20px&quot;&gt;$26.00&lt;/font&gt;&lt;/h1&gt;&lt;p class=&quot;MsoNormal&quot; style=&quot;margin-bottom: 0in ; line-height: 20.0pt&quot;&gt;&lt;span style=&quot;line-height: 112%&quot;&gt;&lt;b&gt;Grilled moroccan&lt;/b&gt; chicken fragrant chicken cooked with garlic, lemon, za’atar and pomegranate molasses served with roasted turmeric cauliflower topped with creamy yogurt.&lt;/span&gt;&lt;span style=&quot;font-size: 12pt&quot;&gt;&lt;/span&gt;&lt;/p&gt;" style="text;html=1;strokeColor=none;fillColor=none;spacing=5;spacingTop=-20;whiteSpace=wrap;overflow=hidden;rounded=0;labelBackgroundColor=#FFFFFF;fontColor=#000000;" vertex="1" parent="1">
          <mxGeometry x="270" y="2760" width="310" height="160" as="geometry" />
        </mxCell>
        <mxCell id="VhDSC5Vx_hJPj3awZrOW-73" value="&lt;h1&gt;Dinner&amp;nbsp; &amp;nbsp; &amp;nbsp; &amp;nbsp; &amp;nbsp; &amp;nbsp; &amp;nbsp; &amp;nbsp; &amp;nbsp;&amp;nbsp;&lt;font style=&quot;font-size: 20px&quot;&gt;$22.00&lt;/font&gt;&lt;/h1&gt;&lt;p class=&quot;MsoNormal&quot; style=&quot;margin-bottom: 0in ; line-height: 172%&quot;&gt;&lt;b&gt;Sun Dried&lt;/b&gt; Tomato Florentine Pasta spicy pasta cooked in a sun dried tomato cream sauce topped with spinach and mozzarella.&lt;/p&gt;" style="text;html=1;strokeColor=none;fillColor=none;spacing=5;spacingTop=-20;whiteSpace=wrap;overflow=hidden;rounded=0;labelBackgroundColor=#FFFFFF;fontColor=#000000;" vertex="1" parent="1">
          <mxGeometry x="270" y="2930" width="307.5" height="140" as="geometry" />
        </mxCell>
        <mxCell id="VhDSC5Vx_hJPj3awZrOW-74" value="&lt;h1&gt;Dinner&amp;nbsp; &amp;nbsp; &amp;nbsp; &amp;nbsp; &amp;nbsp; &amp;nbsp; &amp;nbsp; &amp;nbsp; &amp;nbsp; &amp;nbsp;&lt;font style=&quot;font-size: 20px&quot;&gt;$24.00&lt;/font&gt;&lt;/h1&gt;&lt;p class=&quot;MsoNormal&quot; style=&quot;margin-bottom: 0in ; line-height: 20pt&quot;&gt;&lt;span style=&quot;line-height: 107%&quot;&gt;&lt;b&gt;Apple&lt;/b&gt; and onion pork chops hearty fall flavours served with brussels sprouts with toasted hazelnut butter and an in house made french roll.&lt;/span&gt;&lt;/p&gt;" style="text;html=1;strokeColor=none;fillColor=none;spacing=5;spacingTop=-20;whiteSpace=wrap;overflow=hidden;rounded=0;labelBackgroundColor=#FFFFFF;fontColor=#000000;" vertex="1" parent="1">
          <mxGeometry x="700" y="2595" width="300" height="135" as="geometry" />
        </mxCell>
        <mxCell id="VhDSC5Vx_hJPj3awZrOW-75" value="&lt;h1&gt;Dinner&amp;nbsp; &amp;nbsp; &amp;nbsp; &amp;nbsp; &amp;nbsp; &amp;nbsp; &amp;nbsp; &amp;nbsp; &amp;nbsp; &amp;nbsp;&lt;font style=&quot;font-size: 20px&quot;&gt;$32.00&lt;/font&gt;&lt;/h1&gt;&lt;p class=&quot;MsoNormal&quot; style=&quot;margin-bottom: 0in ; line-height: 20.0pt&quot;&gt;&lt;b&gt;Grilled lobster &lt;/b&gt;tails with coriander fresh and tender lobster tails seasoned with&lt;br&gt;coriander and topped with warm chilli butter sauce.&lt;/p&gt;" style="text;html=1;strokeColor=none;fillColor=none;spacing=5;spacingTop=-20;whiteSpace=wrap;overflow=hidden;rounded=0;labelBackgroundColor=#FFFFFF;fontColor=#000000;" vertex="1" parent="1">
          <mxGeometry x="700" y="2765" width="305" height="155" as="geometry" />
        </mxCell>
        <mxCell id="VhDSC5Vx_hJPj3awZrOW-76" value="&lt;h1&gt;Dinner&amp;nbsp; &amp;nbsp; &amp;nbsp; &amp;nbsp; &amp;nbsp; &amp;nbsp; &amp;nbsp; &amp;nbsp; &amp;nbsp; &amp;nbsp;&lt;font style=&quot;font-size: 20px&quot;&gt;$18.00&lt;/font&gt;&lt;/h1&gt;&lt;p class=&quot;MsoNormal&quot; style=&quot;margin-bottom: 0in ; line-height: 20.0pt&quot;&gt;&lt;font style=&quot;font-size: 12px ; line-height: 132%&quot;&gt;&lt;b&gt;Broccoli &lt;/b&gt;and apple salad with chicken charred broccoli, sweet fuji apples, feta cheese and warm grilled chicken breast served on a bed of mixed greens.&lt;/font&gt;&lt;/p&gt;" style="text;html=1;strokeColor=none;fillColor=none;spacing=5;spacingTop=-20;whiteSpace=wrap;overflow=hidden;rounded=0;labelBackgroundColor=#FFFFFF;fontColor=#000000;" vertex="1" parent="1">
          <mxGeometry x="700" y="2930" width="320" height="180" as="geometry" />
        </mxCell>
        <mxCell id="VhDSC5Vx_hJPj3awZrOW-78" value="&lt;h1&gt;Dinner&amp;nbsp; &amp;nbsp; &amp;nbsp; &amp;nbsp; &amp;nbsp; &amp;nbsp; &amp;nbsp; &amp;nbsp; &amp;nbsp;&lt;font style=&quot;font-size: 20px&quot;&gt;$14.00&lt;/font&gt;&lt;/h1&gt;&lt;p class=&quot;MsoNormal&quot; style=&quot;margin-bottom: 0in ; line-height: 142%&quot;&gt;&lt;b&gt;Grilled eggplant&lt;/b&gt; and vegetables salad grilled red peppers, minced garlic and cilantro&lt;br&gt;with a fresh lime vinaigrette.&lt;/p&gt;" style="text;html=1;spacing=5;spacingTop=-20;whiteSpace=wrap;overflow=hidden;rounded=0;labelBackgroundColor=#FFFFFF;" vertex="1" parent="1">
          <mxGeometry x="275" y="3110" width="315" height="120" as="geometry" />
        </mxCell>
        <mxCell id="VhDSC5Vx_hJPj3awZrOW-79" value="" style="verticalLabelPosition=bottom;shadow=0;dashed=0;align=center;html=1;verticalAlign=top;strokeWidth=1;shape=mxgraph.mockup.graphics.simpleIcon;labelBackgroundColor=#FFFFFF;" vertex="1" parent="1">
          <mxGeometry x="160" y="3110" width="100" height="110" as="geometry" />
        </mxCell>
        <mxCell id="VhDSC5Vx_hJPj3awZrOW-81" value="&lt;b&gt;Weekly Specials&lt;br&gt;Monday&amp;nbsp;&lt;/b&gt;&lt;span style=&quot;line-height: 107%&quot;&gt;&lt;font style=&quot;font-size: 14px&quot;&gt;$3&lt;/font&gt;&lt;span style=&quot;font-size: 13px&quot;&gt; off vegetarian&lt;/span&gt;&lt;br&gt;&lt;span style=&quot;font-size: 13px&quot;&gt;salads and mains&amp;nbsp;&lt;/span&gt;&lt;/span&gt;&lt;br&gt;&lt;b&gt;Tuesday&lt;/b&gt;&amp;nbsp;&lt;span style=&quot;line-height: 107%&quot;&gt;&lt;font style=&quot;font-size: 14px&quot;&gt;$2&lt;/font&gt;&lt;font style=&quot;font-size: 12px&quot;&gt; off bar rail&lt;/font&gt;&lt;/span&gt;&lt;span style=&quot;font-size: 12pt ; line-height: 107%&quot;&gt;&amp;nbsp;&lt;/span&gt;&lt;br&gt;&lt;b&gt;Wednesday&amp;nbsp;&lt;/b&gt;&lt;span style=&quot;line-height: 107%&quot;&gt;&lt;font style=&quot;font-size: 12px&quot;&gt;half-priced&lt;br&gt;appetizers after 9pm&lt;/font&gt;&lt;/span&gt;&lt;br&gt;&lt;b&gt;Thursday&lt;/b&gt;&amp;nbsp;&lt;span style=&quot;font-size: 12pt ; line-height: 107%&quot;&gt;$2 off cocktails&amp;nbsp;&lt;/span&gt;&lt;br&gt;&lt;b&gt;Friday&lt;/b&gt;&amp;nbsp;&lt;span style=&quot;font-size: 12pt&quot;&gt;one&lt;br&gt;free dessert with the purchase 2 mains&lt;/span&gt;&lt;p class=&quot;MsoNormal&quot; style=&quot;margin-bottom: 0in ; line-height: 20.0pt&quot;&gt;&lt;span style=&quot;font-size: 12pt&quot;&gt;&lt;/span&gt;&lt;/p&gt;" style="ellipse;shape=cloud;whiteSpace=wrap;html=1;labelBackgroundColor=#FFFFFF;" vertex="1" parent="1">
          <mxGeometry x="730" y="120" width="340" height="290" as="geometry" />
        </mxCell>
        <mxCell id="VhDSC5Vx_hJPj3awZrOW-83" value="" style="whiteSpace=wrap;html=1;aspect=fixed;labelBackgroundColor=#FFFFFF;" vertex="1" parent="1">
          <mxGeometry x="70" y="3340" width="1000" height="1000" as="geometry" />
        </mxCell>
        <mxCell id="VhDSC5Vx_hJPj3awZrOW-84" value="" style="rounded=0;whiteSpace=wrap;html=1;labelBackgroundColor=#FFFFFF;" vertex="1" parent="1">
          <mxGeometry x="70" y="3340" width="1000" height="110" as="geometry" />
        </mxCell>
        <mxCell id="VhDSC5Vx_hJPj3awZrOW-85" value="HOME" style="text;html=1;strokeColor=none;fillColor=none;align=center;verticalAlign=middle;whiteSpace=wrap;rounded=0;labelBackgroundColor=#FFFFFF;fontColor=#000000;fontStyle=1" vertex="1" parent="1">
          <mxGeometry x="720" y="3390" width="40" height="20" as="geometry" />
        </mxCell>
        <mxCell id="VhDSC5Vx_hJPj3awZrOW-86" value="MENU" style="text;html=1;strokeColor=none;fillColor=none;align=center;verticalAlign=middle;whiteSpace=wrap;rounded=0;labelBackgroundColor=#FFFFFF;fontColor=#000000;fontStyle=1" vertex="1" parent="1">
          <mxGeometry x="810" y="3390" width="40" height="20" as="geometry" />
        </mxCell>
        <mxCell id="VhDSC5Vx_hJPj3awZrOW-87" value="RESERVATION" style="text;html=1;strokeColor=none;fillColor=none;align=center;verticalAlign=middle;whiteSpace=wrap;rounded=0;labelBackgroundColor=#FFFFFF;fontColor=#000000;fontStyle=1" vertex="1" parent="1">
          <mxGeometry x="900" y="3390" width="40" height="20" as="geometry" />
        </mxCell>
        <mxCell id="VhDSC5Vx_hJPj3awZrOW-88" value="&lt;h1&gt;&lt;font style=&quot;font-size: 24px&quot;&gt;Meet&lt;/font&gt;&lt;/h1&gt;&lt;p style=&quot;font-size: 24px&quot;&gt;&lt;font style=&quot;font-size: 24px&quot;&gt;THE MENU&lt;/font&gt;&lt;/p&gt;" style="text;html=1;strokeColor=none;fillColor=none;spacing=5;spacingTop=-20;whiteSpace=wrap;overflow=hidden;rounded=0;labelBackgroundColor=#FFFFFF;fontColor=#000000;align=center;" vertex="1" parent="1">
          <mxGeometry x="500" y="3470" width="190" height="120" as="geometry" />
        </mxCell>
        <mxCell id="VhDSC5Vx_hJPj3awZrOW-89" value="Appetizer" style="rounded=0;whiteSpace=wrap;html=1;labelBackgroundColor=#FFFFFF;fontStyle=1" vertex="1" parent="1">
          <mxGeometry x="360" y="3590" width="120" height="50" as="geometry" />
        </mxCell>
        <mxCell id="VhDSC5Vx_hJPj3awZrOW-90" value="Salads &amp;amp; Desserts" style="rounded=0;whiteSpace=wrap;html=1;labelBackgroundColor=#FFFFFF;fontStyle=1" vertex="1" parent="1">
          <mxGeometry x="480" y="3590" width="120" height="50" as="geometry" />
        </mxCell>
        <mxCell id="VhDSC5Vx_hJPj3awZrOW-91" value="Dinner" style="rounded=0;whiteSpace=wrap;html=1;labelBackgroundColor=#FFFFFF;fontStyle=1" vertex="1" parent="1">
          <mxGeometry x="600" y="3590" width="120" height="50" as="geometry" />
        </mxCell>
        <mxCell id="VhDSC5Vx_hJPj3awZrOW-92" value="Cocktails &amp;amp; Beverages" style="rounded=0;whiteSpace=wrap;html=1;labelBackgroundColor=#000000;fontStyle=1;fontColor=#FFFFFF;fillColor=#000000;" vertex="1" parent="1">
          <mxGeometry x="720" y="3590" width="120" height="50" as="geometry" />
        </mxCell>
        <mxCell id="VhDSC5Vx_hJPj3awZrOW-93" value="&lt;font style=&quot;font-size: 22px&quot;&gt;&lt;b&gt;&lt;u&gt;Meet The Restaurant&lt;/u&gt;&lt;/b&gt;&lt;/font&gt;" style="shape=tapeData;whiteSpace=wrap;html=1;perimeter=ellipsePerimeter;labelBackgroundColor=#FFFFFF;" vertex="1" parent="1">
          <mxGeometry x="100" y="3350" width="240" height="90" as="geometry" />
        </mxCell>
        <mxCell id="VhDSC5Vx_hJPj3awZrOW-94" value="" style="verticalLabelPosition=bottom;shadow=0;dashed=0;align=center;html=1;verticalAlign=top;strokeWidth=1;shape=mxgraph.mockup.graphics.simpleIcon;labelBackgroundColor=#FFFFFF;" vertex="1" parent="1">
          <mxGeometry x="340" y="3700" width="50" height="50" as="geometry" />
        </mxCell>
        <mxCell id="VhDSC5Vx_hJPj3awZrOW-95" value="" style="verticalLabelPosition=bottom;shadow=0;dashed=0;align=center;html=1;verticalAlign=top;strokeWidth=1;shape=mxgraph.mockup.graphics.simpleIcon;labelBackgroundColor=#FFFFFF;" vertex="1" parent="1">
          <mxGeometry x="340" y="3780" width="50" height="50" as="geometry" />
        </mxCell>
        <mxCell id="VhDSC5Vx_hJPj3awZrOW-96" value="" style="verticalLabelPosition=bottom;shadow=0;dashed=0;align=center;html=1;verticalAlign=top;strokeWidth=1;shape=mxgraph.mockup.graphics.simpleIcon;labelBackgroundColor=#FFFFFF;" vertex="1" parent="1">
          <mxGeometry x="340" y="3860" width="50" height="50" as="geometry" />
        </mxCell>
        <mxCell id="VhDSC5Vx_hJPj3awZrOW-97" value="" style="verticalLabelPosition=bottom;shadow=0;dashed=0;align=center;html=1;verticalAlign=top;strokeWidth=1;shape=mxgraph.mockup.graphics.simpleIcon;labelBackgroundColor=#FFFFFF;" vertex="1" parent="1">
          <mxGeometry x="340" y="3940" width="50" height="50" as="geometry" />
        </mxCell>
        <mxCell id="VhDSC5Vx_hJPj3awZrOW-98" value="" style="verticalLabelPosition=bottom;shadow=0;dashed=0;align=center;html=1;verticalAlign=top;strokeWidth=1;shape=mxgraph.mockup.graphics.simpleIcon;labelBackgroundColor=#FFFFFF;" vertex="1" parent="1">
          <mxGeometry x="340" y="4020" width="50" height="50" as="geometry" />
        </mxCell>
        <mxCell id="VhDSC5Vx_hJPj3awZrOW-99" value="" style="verticalLabelPosition=bottom;shadow=0;dashed=0;align=center;html=1;verticalAlign=top;strokeWidth=1;shape=mxgraph.mockup.graphics.simpleIcon;labelBackgroundColor=#FFFFFF;" vertex="1" parent="1">
          <mxGeometry x="340" y="4100" width="50" height="50" as="geometry" />
        </mxCell>
        <mxCell id="VhDSC5Vx_hJPj3awZrOW-100" value="" style="verticalLabelPosition=bottom;shadow=0;dashed=0;align=center;html=1;verticalAlign=top;strokeWidth=1;shape=mxgraph.mockup.graphics.simpleIcon;labelBackgroundColor=#FFFFFF;" vertex="1" parent="1">
          <mxGeometry x="340" y="4190" width="50" height="50" as="geometry" />
        </mxCell>
        <mxCell id="VhDSC5Vx_hJPj3awZrOW-101" value="&lt;h1 style=&quot;font-size: 16px&quot;&gt;&lt;font style=&quot;font-size: 20px&quot;&gt;Cocktails:&amp;nbsp; &amp;nbsp; &amp;nbsp; &amp;nbsp; &amp;nbsp; &amp;nbsp; &amp;nbsp; &amp;nbsp; &amp;nbsp; &amp;nbsp; &amp;nbsp; &amp;nbsp; &amp;nbsp; &amp;nbsp; &amp;nbsp; &amp;nbsp; &amp;nbsp; &amp;nbsp; &amp;nbsp; &amp;nbsp; &amp;nbsp; &amp;nbsp; &amp;nbsp; &amp;nbsp; &amp;nbsp; &amp;nbsp; &lt;/font&gt;&lt;font style=&quot;font-size: 16px ; font-weight: normal&quot;&gt;1oz &amp;nbsp;$8.00&lt;/font&gt;&lt;/h1&gt;&lt;h1 style=&quot;font-size: 16px&quot;&gt;&lt;font style=&quot;font-size: 16px&quot;&gt;&lt;span style=&quot;font-weight: normal&quot;&gt;B&lt;/span&gt;&lt;/font&gt;&lt;span style=&quot;font-weight: normal&quot;&gt;&lt;font style=&quot;font-size: 16px&quot;&gt;ar rail gin, rum, whiskey, vodka, classic martini&lt;/font&gt;&lt;font style=&quot;font-size: 16px&quot;&gt;&amp;nbsp; &lt;/font&gt;&lt;/span&gt;&lt;span style=&quot;font-weight: normal&quot;&gt;&amp;nbsp;&lt;/span&gt; &amp;nbsp;&lt;/h1&gt;&lt;div&gt;&lt;br&gt;&lt;/div&gt;" style="text;html=1;strokeColor=none;fillColor=none;spacing=5;spacingTop=-30;whiteSpace=wrap;overflow=hidden;rounded=0;labelBackgroundColor=#FFFFFF;fontColor=#000000;" vertex="1" parent="1">
          <mxGeometry x="402.5" y="3700" width="490" height="50" as="geometry" />
        </mxCell>
        <mxCell id="VhDSC5Vx_hJPj3awZrOW-102" value="&lt;p style=&quot;line-height: 90%&quot;&gt;&lt;/p&gt;&lt;h1 style=&quot;font-size: 16px&quot;&gt;&lt;font style=&quot;font-size: 20px&quot;&gt;Cocktails:&amp;nbsp; &amp;nbsp; &amp;nbsp; &amp;nbsp; &amp;nbsp; &amp;nbsp; &amp;nbsp; &amp;nbsp; &amp;nbsp; &amp;nbsp; &amp;nbsp; &amp;nbsp; &amp;nbsp; &amp;nbsp; &amp;nbsp; &amp;nbsp; &amp;nbsp; &amp;nbsp; &amp;nbsp; &amp;nbsp; &amp;nbsp; &amp;nbsp; &amp;nbsp; &amp;nbsp; &amp;nbsp; &amp;nbsp;&amp;nbsp;&lt;/font&gt;&lt;font style=&quot;font-size: 16px ; font-weight: normal&quot;&gt;3oz&amp;nbsp; $16.00&lt;/font&gt;&lt;font style=&quot;font-size: 16px&quot;&gt;&amp;nbsp;&lt;/font&gt;&lt;/h1&gt;&lt;h1 style=&quot;font-size: 16px&quot;&gt;&lt;font style=&quot;font-size: 16px&quot;&gt;&lt;/font&gt;&lt;span style=&quot;font-weight: normal&quot;&gt;Orange twist Manhattan&lt;/span&gt;&amp;nbsp;&lt;/h1&gt;&lt;p&gt;&lt;/p&gt;" style="text;html=1;strokeColor=none;fillColor=none;spacing=5;spacingTop=-31;whiteSpace=wrap;overflow=hidden;rounded=0;labelBackgroundColor=#FFFFFF;fontColor=#000000;" vertex="1" parent="1">
          <mxGeometry x="405" y="3785" width="487.5" height="55" as="geometry" />
        </mxCell>
        <mxCell id="VhDSC5Vx_hJPj3awZrOW-104" value="&lt;h1&gt;&lt;font style=&quot;font-size: 20px&quot;&gt;Cocktails:&amp;nbsp; &amp;nbsp; &amp;nbsp; &amp;nbsp; &amp;nbsp; &amp;nbsp; &amp;nbsp; &amp;nbsp; &amp;nbsp; &amp;nbsp; &amp;nbsp; &amp;nbsp; &amp;nbsp; &amp;nbsp; &amp;nbsp; &amp;nbsp; &amp;nbsp; &amp;nbsp; &amp;nbsp; &amp;nbsp; &amp;nbsp; &amp;nbsp; &amp;nbsp; &amp;nbsp; &amp;nbsp; &amp;nbsp;&amp;nbsp;&lt;/font&gt;&lt;font style=&quot;font-size: 16px ; font-weight: normal&quot;&gt;2oz&amp;nbsp; $14.00&lt;/font&gt;&lt;/h1&gt;&lt;div&gt;&lt;font style=&quot;font-size: 16px ; line-height: 70%&quot;&gt;Pomegranate Margarita&lt;/font&gt;&lt;/div&gt;" style="text;html=1;strokeColor=none;fillColor=none;spacing=5;spacingTop=-36;whiteSpace=wrap;overflow=hidden;rounded=0;labelBackgroundColor=#FFFFFF;fontColor=#000000;" vertex="1" parent="1">
          <mxGeometry x="405" y="3860" width="515" height="60" as="geometry" />
        </mxCell>
        <mxCell id="VhDSC5Vx_hJPj3awZrOW-105" value="&lt;h1&gt;&lt;font style=&quot;font-size: 20px&quot;&gt;Cocktails:&lt;/font&gt;&lt;span style=&quot;font-size: 23px&quot;&gt;&amp;nbsp; &amp;nbsp; &amp;nbsp; &amp;nbsp; &amp;nbsp; &amp;nbsp; &amp;nbsp; &amp;nbsp; &amp;nbsp; &amp;nbsp; &amp;nbsp; &amp;nbsp; &amp;nbsp; &amp;nbsp; &amp;nbsp; &amp;nbsp; &amp;nbsp; &amp;nbsp; &amp;nbsp; &amp;nbsp; &amp;nbsp; &amp;nbsp; &amp;nbsp;&lt;/span&gt;&lt;font style=&quot;font-size: 16px ; font-weight: normal&quot;&gt;3oz&amp;nbsp; $16.00&lt;/font&gt;&lt;span style=&quot;font-size: 23px&quot;&gt;&amp;nbsp; &amp;nbsp; &amp;nbsp; &amp;nbsp; &amp;nbsp; &amp;nbsp;&amp;nbsp;&lt;/span&gt;&lt;/h1&gt;&lt;p class=&quot;MsoNormal&quot;&gt;&lt;span style=&quot;font-size: 12pt ; line-height: 107%&quot;&gt;Old Fashioned&amp;nbsp;&lt;/span&gt;&lt;/p&gt;" style="text;html=1;strokeColor=none;fillColor=none;spacing=5;spacingTop=-30;whiteSpace=wrap;overflow=hidden;rounded=0;labelBackgroundColor=#FFFFFF;fontColor=#000000;" vertex="1" parent="1">
          <mxGeometry x="405" y="3930" width="580" height="70" as="geometry" />
        </mxCell>
        <mxCell id="VhDSC5Vx_hJPj3awZrOW-106" value="&lt;h1&gt;&lt;font style=&quot;font-size: 20px&quot;&gt;Cocktails:&amp;nbsp; &amp;nbsp; &amp;nbsp; &amp;nbsp; &amp;nbsp; &amp;nbsp; &amp;nbsp; &amp;nbsp; &amp;nbsp; &amp;nbsp; &amp;nbsp; &amp;nbsp; &amp;nbsp; &amp;nbsp; &amp;nbsp; &amp;nbsp; &amp;nbsp; &amp;nbsp; &amp;nbsp; &amp;nbsp; &amp;nbsp; &amp;nbsp; &amp;nbsp; &amp;nbsp; &amp;nbsp; &amp;nbsp; &lt;/font&gt;&lt;font style=&quot;font-size: 16px ; font-weight: normal&quot;&gt;2oz&amp;nbsp; $14.00&lt;/font&gt;&lt;/h1&gt;&lt;p class=&quot;MsoNormal&quot;&gt;&lt;span style=&quot;font-size: 12pt ; line-height: 107%&quot;&gt;Raspberry Mojito&amp;nbsp;&lt;/span&gt;&lt;/p&gt;" style="text;html=1;strokeColor=none;fillColor=none;spacing=5;spacingTop=-30;whiteSpace=wrap;overflow=hidden;rounded=0;labelBackgroundColor=#FFFFFF;fontColor=#000000;" vertex="1" parent="1">
          <mxGeometry x="405" y="4015" width="567.5" height="60" as="geometry" />
        </mxCell>
        <mxCell id="VhDSC5Vx_hJPj3awZrOW-107" value="&lt;h1&gt;&lt;font style=&quot;font-size: 20px&quot;&gt;Cocktails:&amp;nbsp; &amp;nbsp; &amp;nbsp; &amp;nbsp; &amp;nbsp; &amp;nbsp; &amp;nbsp; &amp;nbsp; &amp;nbsp; &amp;nbsp; &amp;nbsp; &amp;nbsp; &amp;nbsp; &amp;nbsp; &amp;nbsp; &amp;nbsp; &amp;nbsp; &amp;nbsp; &amp;nbsp; &amp;nbsp; &amp;nbsp; &amp;nbsp; &amp;nbsp; &amp;nbsp; &amp;nbsp; &amp;nbsp;&lt;/font&gt;&lt;font style=&quot;font-size: 16px ; font-weight: normal&quot;&gt;1.5oz&amp;nbsp; $12.00&lt;/font&gt;&lt;/h1&gt;&lt;p class=&quot;MsoNormal&quot;&gt;&lt;span style=&quot;font-size: 12pt ; line-height: 107%&quot;&gt;Blood Orange Daiquiri&amp;nbsp;&lt;/span&gt;&lt;/p&gt;" style="text;html=1;strokeColor=none;fillColor=none;spacing=6;spacingTop=-30;whiteSpace=wrap;overflow=hidden;rounded=0;labelBackgroundColor=#FFFFFF;fontColor=#000000;" vertex="1" parent="1">
          <mxGeometry x="405" y="4095" width="577.5" height="60" as="geometry" />
        </mxCell>
        <mxCell id="VhDSC5Vx_hJPj3awZrOW-108" value="&lt;h1&gt;&lt;font style=&quot;font-size: 20px&quot;&gt;Cocktails:&amp;nbsp; &amp;nbsp; &amp;nbsp; &amp;nbsp; &amp;nbsp; &amp;nbsp; &amp;nbsp; &amp;nbsp; &amp;nbsp; &amp;nbsp; &amp;nbsp; &amp;nbsp; &amp;nbsp; &amp;nbsp; &amp;nbsp; &amp;nbsp; &amp;nbsp; &amp;nbsp; &amp;nbsp; &amp;nbsp; &amp;nbsp; &amp;nbsp; &amp;nbsp; &amp;nbsp; &amp;nbsp; &amp;nbsp; &lt;/font&gt;&lt;font style=&quot;font-size: 16px ; font-weight: normal&quot;&gt;2oz&amp;nbsp; $14.00&lt;/font&gt;&lt;font style=&quot;font-size: 20px&quot;&gt;&amp;nbsp; &amp;nbsp; &amp;nbsp;&amp;nbsp;&lt;/font&gt;&lt;/h1&gt;&lt;h1&gt;&lt;font style=&quot;font-size: 16px ; font-weight: normal&quot;&gt;Rosemary and Cucumber&lt;/font&gt;&lt;span style=&quot;font-size: 23px&quot;&gt;&amp;nbsp;&lt;/span&gt;&lt;/h1&gt;&lt;div&gt;&lt;p class=&quot;MsoNormal&quot;&gt;&lt;span style=&quot;font-size: 12pt ; line-height: 107%&quot;&gt;w/Gin and Tonic&amp;nbsp; &amp;nbsp; &amp;nbsp; &amp;nbsp; &amp;nbsp; &amp;nbsp; &amp;nbsp; &amp;nbsp; &amp;nbsp; &amp;nbsp; &amp;nbsp; &amp;nbsp; &amp;nbsp; &amp;nbsp; &amp;nbsp; &amp;nbsp; &amp;nbsp; &amp;nbsp; &amp;nbsp; &amp;nbsp; &amp;nbsp; &amp;nbsp; &amp;nbsp; &amp;nbsp; &amp;nbsp; &amp;nbsp; &amp;nbsp; &amp;nbsp; &amp;nbsp; &amp;nbsp; &amp;nbsp;&lt;/span&gt;&lt;span style=&quot;line-height: 107%&quot;&gt;&lt;font style=&quot;font-size: 16px&quot;&gt;2oz&amp;nbsp; $16.00&lt;/font&gt;&lt;/span&gt;&lt;/p&gt;&lt;/div&gt;" style="text;html=1;strokeColor=none;fillColor=none;spacing=5;spacingTop=-30;whiteSpace=wrap;overflow=hidden;rounded=0;labelBackgroundColor=#FFFFFF;fontColor=#000000;" vertex="1" parent="1">
          <mxGeometry x="402.5" y="4180" width="557.5" height="120" as="geometry" />
        </mxCell>
        <mxCell id="VhDSC5Vx_hJPj3awZrOW-109" value="" style="whiteSpace=wrap;html=1;aspect=fixed;labelBackgroundColor=#000000;" vertex="1" parent="1">
          <mxGeometry x="70" y="4420" width="1000" height="1000" as="geometry" />
        </mxCell>
        <mxCell id="VhDSC5Vx_hJPj3awZrOW-110" value="&lt;font style=&quot;font-size: 24px&quot;&gt;&lt;b&gt;BrainStation Admission Challenge&lt;/b&gt;&lt;/font&gt;" style="rounded=0;whiteSpace=wrap;html=1;labelBackgroundColor=#FFFFFF;" vertex="1" parent="1">
          <mxGeometry x="70" y="4420" width="1000" height="110" as="geometry" />
        </mxCell>
        <mxCell id="VhDSC5Vx_hJPj3awZrOW-112" value="&lt;h1 style=&quot;text-align: right&quot;&gt;Frederick Cashaw&lt;/h1&gt;&lt;div style=&quot;text-align: center&quot;&gt;&lt;b&gt;&lt;font style=&quot;font-size: 22px&quot;&gt;WriteUp&lt;/font&gt;&lt;/b&gt;&lt;/div&gt;&lt;div&gt;&lt;br&gt;&lt;/div&gt;&lt;p&gt;&lt;font face=&quot;Merriweather, serif&quot; size=&quot;1&quot;&gt;&lt;span style=&quot;letter-spacing: 0.0933333px ; font-size: 16px&quot;&gt;My first look at the data set from the BrainStation Admission Challenge demonstrated a list of restaurant items that would need to be placed on a restaurant menu. There were a number of desserts, dinner, appetizers, and cocktails items jumbled up together on a single page. The first approach in this challenge, is to evaluate the data set to figure out a direction or starting point. After completely reading through the entire document line by line. It became obvious the data needed to be separated&amp;nbsp;into four categories, appetizers, salads &amp;amp; desserts, dinners, and cocktails. Before the design can be developed, a thought really had to be considered about the user and the usability of the menu. The style of the menu had to flow smoothly for the user from top to bottom. Putting myself in the users position, all menus start with the appetizers. So the first item listed on this menu is the appetizers with product and the list price for each item. This layout was design for each item in the menu. The second listed item is salads &amp;amp; desserts together on one page. There wasn&#39;t enough information to fill up the page, so by combining&amp;nbsp;these to items together allowed the information to be listed on the same page.&amp;nbsp; If additional information was provided for each item, both salads and desserts would have been separated&amp;nbsp;on single pages. The third item listed is the dinner item. This item list had the most information in the data set, which made it hard to list on one page, but thinking about the right design for the page layout allowed everything to fit. The fourth item from the data set is cocktails. This list caused me to really think outside the box and come up with a design layout that would allow the information to run together on the page. The cocktails menu is an important part of a menu and needs to breath like most cocktails do. The majority of users having an experience&amp;nbsp;at a restaurant would order appetizers and drinks before looking at the dinner menu.&lt;/span&gt;&lt;/font&gt;&lt;/p&gt;" style="text;html=1;strokeColor=none;fillColor=none;spacing=5;spacingTop=-20;whiteSpace=wrap;overflow=hidden;rounded=0;labelBackgroundColor=#FFFFFF;" vertex="1" parent="1">
          <mxGeometry x="100" y="4580" width="940" height="750" as="geometry" />
        </mxCell>
      </root>
    </mxGraphModel>
  </diagram>
</mxfile>
